<?xml version="1.0" encoding="UTF-8" standalone="no" ?>
<!DOCTYPE svg PUBLIC "-//W3C//DTD SVG 1.1//EN" "http://www.w3.org/Graphics/SVG/1.1/DTD/svg11.dtd">
<svg xmlns="http://www.w3.org/2000/svg" xmlns:xlink="http://www.w3.org/1999/xlink" version="1.1" width="400" height="400" viewBox="0 0 400 400" xml:space="preserve">
<desc>Created with Fabric.js 3.6.2</desc>
<defs>
</defs>
<g transform="matrix(3.53 0 0 3.53 199.47 204.06)" id="Layer_1"  >
<path style="stroke: none; stroke-width: 1; stroke-dasharray: none; stroke-linecap: butt; stroke-dashoffset: 0; stroke-linejoin: miter; stroke-miterlimit: 4; fill: rgb(255,255,255); fill-rule: nonzero; opacity: 1;"  transform=" translate(-28.2, -29.5)" d="M 28.2 16.7 c -7 0 -12.8 5.7 -12.8 12.8 s 5.7 12.8 12.8 12.8 S 41 36.5 41 29.5 S 35.2 16.7 28.2 16.7 z M 28.2 37.7 c -4.5 0 -8.2 -3.7 -8.2 -8.2 s 3.7 -8.2 8.2 -8.2 s 8.2 3.7 8.2 8.2 S 32.7 37.7 28.2 37.7 z" stroke-linecap="round" />
</g>
<g transform="matrix(3.53 0 0 3.53 246.38 157.85)" id="Layer_1"  >
<circle style="stroke: none; stroke-width: 1; stroke-dasharray: none; stroke-linecap: butt; stroke-dashoffset: 0; stroke-linejoin: miter; stroke-miterlimit: 4; fill: rgb(255,255,255); fill-rule: nonzero; opacity: 1;"  cx="0" cy="0" r="2.9" />
</g>
<g transform="matrix(3.53 0 0 3.53 199.47 204.41)" id="Layer_1"  >
<path style="stroke: none; stroke-width: 1; stroke-dasharray: none; stroke-linecap: butt; stroke-dashoffset: 0; stroke-linejoin: miter; stroke-miterlimit: 4; fill: rgb(255,255,255); fill-rule: nonzero; opacity: 1;"  transform=" translate(-28.2, -29.6)" d="M 49 8.9 c -2.6 -2.7 -6.3 -4.1 -10.5 -4.1 H 17.9 c -8.7 0 -14.5 5.8 -14.5 14.5 v 20.5 c 0 4.3 1.4 8 4.2 10.7 c 2.7 2.6 6.3 3.9 10.4 3.9 h 20.4 c 4.3 0 7.9 -1.4 10.5 -3.9 c 2.7 -2.6 4.1 -6.3 4.1 -10.6 V 19.3 C 53 15.1 51.6 11.5 49 8.9 z M 48.6 39.9 c 0 3.1 -1.1 5.6 -2.9 7.3 s -4.3 2.6 -7.3 2.6 H 18 c -3 0 -5.5 -0.9 -7.3 -2.6 C 8.9 45.4 8 42.9 8 39.8 V 19.3 c 0 -3 0.9 -5.5 2.7 -7.3 c 1.7 -1.7 4.3 -2.6 7.3 -2.6 h 20.6 c 3 0 5.5 0.9 7.3 2.7 c 1.7 1.8 2.7 4.3 2.7 7.2 V 39.9 L 48.6 39.9 z" stroke-linecap="round" />
</g>
</svg>